<?xml version="1.0" encoding="UTF-8" standalone="no"?>
<svg
   xmlns:dc="http://purl.org/dc/elements/1.1/"
   xmlns:cc="http://creativecommons.org/ns#"
   xmlns:rdf="http://www.w3.org/1999/02/22-rdf-syntax-ns#"
   xmlns:svg="http://www.w3.org/2000/svg"
   xmlns="http://www.w3.org/2000/svg"
   xmlns:sodipodi="http://sodipodi.sourceforge.net/DTD/sodipodi-0.dtd"
   xmlns:inkscape="http://www.inkscape.org/namespaces/inkscape"
   version="1.1"
   width="500"
   height="390"
   id="svg15"
   viewBox="0 0 500 390"
   sodipodi:docname="MG Papelaria Selo.svg"
   inkscape:version="0.92.4 (5da689c313, 2019-01-14)"
   inkscape:export-filename="/media/publico/Documentos/Arte Final/Logotipo MG Papelaria/MG Papelaria Selo.png"
   inkscape:export-xdpi="300.06152"
   inkscape:export-ydpi="300.06152">
  <metadata
     id="metadata21">
    <rdf:RDF>
      <cc:Work
         rdf:about="">
        <dc:format>image/svg+xml</dc:format>
        <dc:type
           rdf:resource="http://purl.org/dc/dcmitype/StillImage" />
        <dc:title />
      </cc:Work>
    </rdf:RDF>
  </metadata>
  <defs
     id="defs19" />
  <sodipodi:namedview
     pagecolor="#ffffff"
     bordercolor="#666666"
     borderopacity="1"
     objecttolerance="10"
     gridtolerance="10"
     guidetolerance="10"
     inkscape:pageopacity="0"
     inkscape:pageshadow="2"
     inkscape:window-width="1600"
     inkscape:window-height="849"
     id="namedview17"
     showgrid="false"
     inkscape:zoom="0.5955225"
     inkscape:cx="-99.87448"
     inkscape:cy="365.06773"
     inkscape:window-x="0"
     inkscape:window-y="25"
     inkscape:window-maximized="1"
     inkscape:current-layer="svg15"
     showguides="true"
     inkscape:guide-bbox="true">
    <sodipodi:guide
       position="0,490.38466"
       orientation="1,0"
       id="guide3705"
       inkscape:locked="false"
       inkscape:label=""
       inkscape:color="rgb(0,0,255)" />
    <sodipodi:guide
       position="-39.183278,0"
       orientation="0,1"
       id="guide3714"
       inkscape:locked="false"
       inkscape:label=""
       inkscape:color="rgb(0,0,255)" />
    <sodipodi:guide
       position="500,511.75736"
       orientation="1,0"
       id="guide3716"
       inkscape:locked="false"
       inkscape:label=""
       inkscape:color="rgb(0,0,255)" />
    <sodipodi:guide
       position="115.17509,390"
       orientation="0,1"
       id="guide3718"
       inkscape:locked="false"
       inkscape:label=""
       inkscape:color="rgb(0,0,255)" />
  </sodipodi:namedview>
  <g
     id="g20">
    <g
       transform="matrix(1.2937782,0,0,1.2900968,-192.11584,-558.62923)"
       id="Layer1000">
      <path
         inkscape:connector-curvature="0"
         id="path2"
         style="fill:#ffec00;fill-rule:evenodd"
         d="m 148.4921,433.0134 h 386.465 v 302.3029 h -386.465 z" />
      <path
         inkscape:connector-curvature="0"
         id="path4"
         style="fill:#ff0000;fill-rule:evenodd"
         d="m 170.6832,459.684 h 60.0269 l 23.1718,98.9183 23.0686,-98.9183 h 59.8203 V 622.276 H 299.5036 V 498.2974 L 270.5901,622.276 H 236.864 L 208.0545,498.2974 V 622.276 h -37.3713 z m 269.4316,103.6878 v -33.8049 h 70.4787 v 69.3138 c -13.4776,10.108 -25.4073,17.0358 -35.7893,20.6696 -10.3828,3.672 -22.6914,5.4889 -36.9234,5.4889 -17.5341,0 -31.801,-3.2932 -42.8366,-9.8804 -11.0705,-6.549 -19.6306,-16.3537 -25.6821,-29.3761 -6.0848,-13.0223 -9.1447,-27.938 -9.1447,-44.7836 0,-17.7544 3.3347,-33.2001 9.9706,-46.3355 6.6693,-13.0987 16.3985,-23.0547 29.2217,-29.8687 10.0047,-5.2621 23.4807,-7.8741 40.3954,-7.8741 16.296,0 28.5013,1.6275 36.6152,4.8833 8.0789,3.2558 14.7832,8.2903 20.1453,15.1425 5.3296,6.814 9.3511,15.4831 12.0338,26.0073 l -44.0064,8.6309 c -1.8218,-6.1327 -4.9166,-10.8266 -9.2479,-14.0824 -4.2972,-3.2558 -9.8324,-4.8833 -16.5367,-4.8833 -10.0039,0 -17.9804,3.8232 -23.9278,11.4705 -5.9474,7.6846 -8.9382,19.7607 -8.9382,36.3413 0,17.6032 3.0249,30.1719 9.0414,37.7046 5.9816,7.5334 14.3702,11.3192 25.131,11.3192 5.0881,0 9.9706,-0.8324 14.5775,-2.4607 4.641,-1.6275 9.9698,-4.3915 15.9172,-8.2903 v -15.3319 z" />
      <path
         inkscape:connector-curvature="0"
         id="path6"
         style="fill:#3f3fc4;fill-rule:evenodd"
         d="m 176.8409,639.4013 h 24.7106 c 5.3768,0 9.4094,1.6241 12.0867,4.887 2.6772,3.2481 4.0213,7.8928 4.0213,13.8911 0,6.1835 -1.4561,11.0131 -4.3798,14.4895 -2.9236,3.4765 -7.3816,5.2145 -13.3745,5.2145 h -8.1325 v 22.7103 h -14.9318 z m 14.9318,26.0868 h 3.6402 c 2.8678,0 4.8727,-0.6268 6.0379,-1.8946 1.1539,-1.2683 1.7361,-2.8924 1.7361,-4.8587 0,-1.9233 -0.5041,-3.5617 -1.512,-4.8866 -0.9969,-1.3392 -2.89,-2.0089 -5.668,-2.0089 h -4.2342 z m 43.7985,5.1292 -12.7587,-1.7097 c 0.4819,-2.8354 1.1762,-5.0719 2.0833,-6.6963 0.9075,-1.6241 2.2067,-3.0346 3.9206,-4.2315 1.2211,-0.8691 2.9127,-1.5385 5.0522,-2.0086 2.1396,-0.4702 4.4583,-0.7125 6.9563,-0.7125 3.9987,0 7.225,0.2849 9.6445,0.8547 2.4308,0.5698 4.4583,1.7667 6.0714,3.5761 1.1423,1.2539 2.0384,3.0206 2.6996,5.3145 0.6494,2.3078 0.9742,4.4877 0.9742,6.582 v 19.5761 c 0,2.0799 0.1121,3.7183 0.314,4.9009 0.2128,1.1826 0.6607,2.6927 1.3664,4.5307 h -12.5346 c -0.5041,-1.1399 -0.8286,-2.0089 -0.9856,-2.6074 -0.157,-0.5981 -0.3026,-1.5384 -0.4592,-2.8206 -1.7475,2.1512 -3.495,3.6757 -5.2202,4.5873 -2.3637,1.2253 -5.1081,1.8381 -8.2332,1.8381 -4.1557,0 -7.3148,-1.2253 -9.4766,-3.6757 -2.1508,-2.4365 -3.2263,-5.4568 -3.2263,-9.0472 0,-3.3768 0.7728,-6.1405 2.3301,-8.3064 1.5573,-2.1795 4.4134,-3.7897 8.5917,-4.8439 5.0183,-1.2823 8.2668,-2.18 9.7566,-2.6928 1.4788,-0.5128 3.058,-1.1969 4.716,-2.0233 0,-2.0942 -0.3362,-3.5474 -1.0083,-4.3881 -0.6833,-0.8264 -1.8704,-1.2535 -3.5843,-1.2535 -2.1845,0 -3.8199,0.4558 -4.9175,1.3392 -0.8513,0.6981 -1.546,2.0086 -2.0724,3.9179 z m 11.5825,8.9332 c -1.8373,0.8404 -3.7527,1.5815 -5.7352,2.2226 -2.7108,0.9116 -4.436,1.8237 -5.1526,2.707 -0.7506,0.926 -1.1203,1.966 -1.1203,3.1342 0,1.3392 0.3697,2.4222 1.0976,3.2769 0.7393,0.8407 1.8147,1.2682 3.2373,1.2682 1.4901,0 2.8678,-0.4558 4.156,-1.3679 1.2769,-0.926 2.1841,-2.0516 2.7218,-3.3625 0.5377,-1.3248 0.7954,-3.0489 0.7954,-5.1575 z m 21.7983,37.9119 V 656.27 h 12.5013 v 6.5541 c 1.7362,-2.7641 3.3154,-4.6304 4.7606,-5.5994 1.9493,-1.3105 4.0998,-1.966 6.4635,-1.966 4.6598,0 8.2668,2.2796 10.8206,6.8103 2.543,4.5304 3.8199,10.1441 3.8199,16.8261 0,7.3657 -1.389,12.9934 -4.167,16.883 -2.778,3.8753 -6.2956,5.813 -10.5297,5.813 -2.0611,0 -3.9429,-0.4415 -5.6345,-1.3249 -1.6913,-0.8977 -3.2146,-2.2229 -4.5477,-3.9753 v 21.1715 z m 13.3975,-38.9092 c 0,3.5048 0.571,6.1118 1.7362,7.8076 1.1535,1.6954 2.621,2.5501 4.3911,2.5501 1.5569,0 2.8565,-0.8121 3.9093,-2.4505 1.0528,-1.6241 1.5795,-4.3881 1.5795,-8.2778 0,-3.5904 -0.549,-6.2261 -1.6467,-7.9072 -1.0867,-1.6954 -2.4308,-2.5361 -3.9991,-2.5361 -1.7138,0 -3.1364,0.8547 -4.2677,2.5505 -1.1426,1.6954 -1.7026,4.4594 -1.7026,8.2634 z m 70.0551,4.0889 h -26.772 c 0.235,2.7353 0.8177,4.7586 1.7365,6.0978 1.2879,1.9233 2.9795,2.878 5.0518,2.878 1.3105,0 2.5648,-0.4132 3.7414,-1.2539 0.7279,-0.5271 1.5007,-1.4531 2.3297,-2.7923 l 13.1621,1.5388 c -2.0162,4.4594 -4.4361,7.6506 -7.2812,9.5882 -2.8452,1.9237 -6.9227,2.8924 -12.2436,2.8924 -4.6149,0 -8.2442,-0.8264 -10.8988,-2.4792 -2.6437,-1.6527 -4.8391,-4.2885 -6.5756,-7.8928 -1.7361,-3.6048 -2.6101,-7.8363 -2.6101,-12.7089 0,-6.9242 1.7475,-12.5376 5.2311,-16.8117 3.4954,-4.2885 8.3118,-6.4398 14.4617,-6.4398 4.9847,0 8.9275,0.9687 11.8066,2.892 2.8897,1.9093 5.0964,4.7017 6.5975,8.3347 1.5124,3.6474 2.2629,8.3917 2.2629,14.2334 z m -13.5764,-8.1351 c -0.269,-3.2912 -0.9633,-5.6421 -2.0837,-7.0526 -1.1312,-1.4248 -2.6097,-2.1372 -4.447,-2.1372 -2.1282,0 -3.8194,1.0829 -5.0967,3.2198 -0.8064,1.3396 -1.3218,3.3199 -1.5347,5.97 z m 20.1742,-35.1057 h 13.3972 v 61.1924 h -13.3972 z m 34.0978,31.216 -12.7587,-1.7097 c 0.4819,-2.8354 1.1762,-5.0719 2.0837,-6.6963 0.9071,-1.6241 2.2067,-3.0346 3.9206,-4.2315 1.221,-0.8691 2.9123,-1.5385 5.0518,-2.0086 2.1395,-0.4702 4.4583,-0.7125 6.9563,-0.7125 3.9991,0 7.225,0.2849 9.6445,0.8547 2.4308,0.5698 4.4583,1.7667 6.0714,3.5761 1.1426,1.2539 2.0388,3.0206 2.6995,5.3145 0.6494,2.3078 0.9743,4.4877 0.9743,6.582 v 19.5761 c 0,2.0799 0.1125,3.7183 0.314,4.9009 0.2128,1.1826 0.6607,2.6927 1.3667,4.5307 h -12.5345 c -0.5042,-1.1399 -0.829,-2.0089 -0.986,-2.6074 -0.157,-0.5981 -0.3023,-1.5384 -0.4592,-2.8206 -1.7475,2.1512 -3.495,3.6757 -5.2202,4.5873 -2.3637,1.2253 -5.1077,1.8381 -8.2328,1.8381 -4.1561,0 -7.3152,-1.2253 -9.477,-3.6757 -2.1505,-2.4365 -3.2259,-5.4568 -3.2259,-9.0472 0,-3.3768 0.7728,-6.1405 2.3301,-8.3064 1.5569,-2.1795 4.4134,-3.7897 8.5913,-4.8439 5.0183,-1.2823 8.2668,-2.18 9.757,-2.6928 1.4784,-0.5128 3.0576,-1.1969 4.716,-2.0233 0,-2.0942 -0.3362,-3.5474 -1.0087,-4.3881 -0.6833,-0.8264 -1.8704,-1.2535 -3.5843,-1.2535 -2.1845,0 -3.8199,0.4558 -4.9176,1.3392 -0.8512,0.6981 -1.5459,2.0086 -2.0723,3.9179 z m 11.5829,8.9332 c -1.8377,0.8404 -3.7527,1.5815 -5.7356,2.2226 -2.7108,0.9116 -4.4357,1.8237 -5.1526,2.707 -0.7506,0.926 -1.1204,1.966 -1.1204,3.1342 0,1.3392 0.3698,2.4222 1.0977,3.2769 0.7396,0.8407 1.815,1.2682 3.2376,1.2682 1.4898,0 2.8674,-0.4558 4.1557,-1.3679 1.2769,-0.926 2.184,-2.0516 2.7221,-3.3625 0.5374,-1.3248 0.7955,-3.0489 0.7955,-5.1575 z M 425.8874,656.27 h 12.5014 v 7.2522 c 1.2094,-3.1346 2.4527,-5.3002 3.73,-6.4828 1.2769,-1.1822 2.8565,-1.7807 4.7383,-1.7807 1.9712,0 4.1221,0.7834 6.4631,2.3365 l -4.133,12.1101 c -1.5683,-0.8404 -2.8229,-1.2535 -3.7414,-1.2535 -1.7474,0 -3.1032,0.9259 -4.0662,2.7496 -1.3781,2.5931 -2.0724,7.4371 -2.0724,14.5322 v 14.8601 h -13.4198 z m 30.1885,-16.8687 h 13.3636 v 11.5689 h -13.3636 z m 0,16.8687 h 13.3636 v 44.3237 h -13.3636 z m 34.0646,14.3473 -12.7591,-1.7097 c 0.4819,-2.8354 1.1762,-5.0719 2.0837,-6.6963 0.9071,-1.6241 2.2067,-3.0346 3.9206,-4.2315 1.2211,-0.8691 2.9123,-1.5385 5.0518,-2.0086 2.1396,-0.4702 4.4583,-0.7125 6.9563,-0.7125 3.9991,0 7.225,0.2849 9.6449,0.8547 2.4305,0.5698 4.4579,1.7667 6.0711,3.5761 1.1426,1.2539 2.0387,3.0206 2.6998,5.3145 0.6495,2.3078 0.9743,4.4877 0.9743,6.582 v 19.5761 c 0,2.0799 0.1121,3.7183 0.3136,4.9009 0.2128,1.1826 0.6607,2.6927 1.3667,4.5307 h -12.5345 c -0.5041,-1.1399 -0.829,-2.0089 -0.986,-2.6074 -0.157,-0.5981 -0.3022,-1.5384 -0.4592,-2.8206 -1.7475,2.1512 -3.495,3.6757 -5.2202,4.5873 -2.3636,1.2253 -5.1077,1.8381 -8.2328,1.8381 -4.1561,0 -7.3152,-1.2253 -9.477,-3.6757 -2.1504,-2.4365 -3.2259,-5.4568 -3.2259,-9.0472 0,-3.3768 0.7728,-6.1405 2.3301,-8.3064 1.5569,-2.1795 4.4134,-3.7897 8.5913,-4.8439 5.0183,-1.2823 8.2669,-2.18 9.757,-2.6928 1.4784,-0.5128 3.0576,-1.1969 4.716,-2.0233 0,-2.0942 -0.3362,-3.5474 -1.0086,-4.3881 -0.683,-0.8264 -1.8705,-1.2535 -3.5844,-1.2535 -2.1844,0 -3.8198,0.4558 -4.9175,1.3392 -0.8513,0.6981 -1.546,2.0086 -2.072,3.9179 z m 11.5825,8.9332 c -1.8373,0.8404 -3.7527,1.5815 -5.7356,2.2226 -2.7104,0.9116 -4.4357,1.8237 -5.1526,2.707 -0.7505,0.926 -1.1203,1.966 -1.1203,3.1342 0,1.3392 0.3698,2.4222 1.0977,3.2769 0.7395,0.8407 1.815,1.2682 3.2376,1.2682 1.4897,0 2.8674,-0.4558 4.1556,-1.3679 1.2769,-0.926 2.1841,-2.0516 2.7222,-3.3625 0.5373,-1.3248 0.7954,-3.0489 0.7954,-5.1575 z" />
    </g>
    <path
       inkscape:connector-curvature="0"
       id="path9"
       style="fill:#3f3fc4;fill-rule:evenodd;stroke-width:1.29061711"
       d="m 474.09473,13.446361 c 2.16844,0 4.2836,0.552508 6.35297,1.65815 2.0629,1.112222 3.67649,2.695413 4.82784,4.760924 1.15122,2.060615 1.72973,4.213313 1.72973,6.453968 0,2.217864 -0.56701,4.347772 -1.70684,6.390484 -1.13337,2.048378 -2.72898,3.637235 -4.77456,4.766581 -2.05139,1.135012 -4.19034,1.699623 -6.42914,1.699623 -2.23879,0 -4.38344,-0.564611 -6.42901,-1.699623 -2.05139,-1.129346 -3.64701,-2.718203 -4.78685,-4.766581 -1.14565,-2.042712 -1.71266,-4.17262 -1.71266,-6.390484 0,-2.240655 0.57852,-4.393353 1.73633,-6.453968 1.15704,-2.065511 2.76986,-3.648702 4.83923,-4.760924 2.0629,-1.105642 4.18465,-1.65815 6.35296,-1.65815 z m 0,2.129908 c -1.8182,0 -3.58311,0.465312 -5.30146,1.390915 -1.71758,0.925603 -3.06203,2.252121 -4.03243,3.968867 -0.97041,1.723316 -1.45568,3.515926 -1.45568,5.383352 0,1.851206 0.47946,3.625912 1.43201,5.325535 0.95321,1.699746 2.28536,3.026141 3.99802,3.974667 1.71254,0.949163 3.49479,1.425808 5.35954,1.425808 1.8583,0 3.64701,-0.476645 5.35967,-1.425808 1.71176,-0.948526 3.039,-2.274921 3.98574,-3.974667 0.94673,-1.699623 1.42049,-3.474329 1.42049,-5.325535 0,-1.867426 -0.47957,-3.660036 -1.44429,-5.383352 -0.96381,-1.716746 -2.30825,-3.043264 -4.0323,-3.968867 -1.72417,-0.925603 -3.48908,-1.390915 -5.28931,-1.390915 z m -5.66968,17.849812 V 19.585963 h 4.77533 c 1.63648,0 2.81732,0.122223 3.54794,0.378895 0.72997,0.255779 1.30925,0.703957 1.74706,1.337851 0.43288,0.640465 0.64887,1.315965 0.64887,2.031256 0,1.012789 -0.36252,1.892032 -1.08668,2.642483 -0.72492,0.75044 -1.68964,1.170038 -2.88767,1.262891 0.49096,0.203742 0.88866,0.448188 1.18083,0.733327 0.56132,0.546708 1.2446,1.460967 2.05709,2.746669 l 1.69546,2.706746 h -2.74127 l -1.23309,-2.182838 c -0.9704,-1.71108 -1.74784,-2.787362 -2.34434,-3.218417 -0.40908,-0.320176 -1.01049,-0.476655 -1.80009,-0.476655 h -1.31496 v 5.87791 z m 2.24448,-7.787066 h 2.72394 c 1.29698,0 2.18565,-0.197942 2.6594,-0.582504 0.47298,-0.383792 0.71264,-0.896243 0.71264,-1.535937 0,-0.407352 -0.11692,-0.77401 -0.34442,-1.099976 -0.22828,-0.320175 -0.54411,-0.564611 -0.94673,-0.72186 -0.4091,-0.163049 -1.15782,-0.238779 -2.25679,-0.238779 h -2.54804 z" />
  </g>
</svg>
