<?xml version="1.0" encoding="UTF-8" standalone="no"?>
<svg
   xmlns:dc="http://purl.org/dc/elements/1.1/"
   xmlns:cc="http://creativecommons.org/ns#"
   xmlns:rdf="http://www.w3.org/1999/02/22-rdf-syntax-ns#"
   xmlns:svg="http://www.w3.org/2000/svg"
   xmlns="http://www.w3.org/2000/svg"
   xmlns:sodipodi="http://sodipodi.sourceforge.net/DTD/sodipodi-0.dtd"
   xmlns:inkscape="http://www.inkscape.org/namespaces/inkscape"
   version="1.1"
   width="500"
   height="95"
   id="svg11"
   viewBox="0 0 500 95"
   sodipodi:docname="MG Papelaria Preto e Branco.svg"
   inkscape:version="0.92.4 (5da689c313, 2019-01-14)"
   inkscape:export-filename="/media/publico/Documentos/Arte Final/Logotipo MG Papelaria/MG Papelaria.png"
   inkscape:export-xdpi="300"
   inkscape:export-ydpi="300">
  <metadata
     id="metadata17">
    <rdf:RDF>
      <cc:Work
         rdf:about="">
        <dc:format>image/svg+xml</dc:format>
        <dc:type
           rdf:resource="http://purl.org/dc/dcmitype/StillImage" />
        <dc:title></dc:title>
      </cc:Work>
    </rdf:RDF>
  </metadata>
  <defs
     id="defs15" />
  <sodipodi:namedview
     pagecolor="#ffffff"
     bordercolor="#666666"
     borderopacity="1"
     objecttolerance="10"
     gridtolerance="10"
     guidetolerance="10"
     inkscape:pageopacity="0"
     inkscape:pageshadow="2"
     inkscape:window-width="1366"
     inkscape:window-height="717"
     id="namedview13"
     showgrid="false"
     inkscape:zoom="1.1847973"
     inkscape:cx="358.95448"
     inkscape:cy="86.281416"
     inkscape:window-x="0"
     inkscape:window-y="25"
     inkscape:window-maximized="1"
     inkscape:current-layer="svg11"
     showguides="true"
     inkscape:guide-bbox="true">
    <sodipodi:guide
       position="102.16056,0"
       orientation="0,1"
       id="guide18"
       inkscape:locked="false"
       inkscape:label=""
       inkscape:color="rgb(0,0,255)" />
    <sodipodi:guide
       position="98.376833,95"
       orientation="0,1"
       id="guide20"
       inkscape:locked="false"
       inkscape:label=""
       inkscape:color="rgb(0,0,255)" />
    <sodipodi:guide
       position="0,62.431452"
       orientation="1,0"
       id="guide22"
       inkscape:locked="false"
       inkscape:label=""
       inkscape:color="rgb(0,0,255)" />
    <sodipodi:guide
       position="500,179.09629"
       orientation="1,0"
       id="guide24"
       inkscape:locked="false"
       inkscape:label=""
       inkscape:color="rgb(0,0,255)" />
  </sodipodi:namedview>
  <path
     inkscape:connector-curvature="0"
     id="path2"
     style="fill:#000000;fill-rule:evenodd;stroke-width:1.26031327"
     d="M 3.96814e-6,-1e-6 H 500.00002 v 95 H 3.96814e-6 Z" />
  <g
     id="g47"
     transform="translate(-1.438257,0.2765265)"
     style="fill:#ffffff">
    <path
       d="M 10.005298,10.423912 H 36.324695 L 46.484654,53.795653 56.599219,10.423912 H 82.828207 V 81.71413 H 66.487949 V 27.354284 L 53.810477,81.71413 H 39.022902 L 26.391075,27.354284 V 81.71413 H 10.005298 Z M 128.14042,55.886895 V 41.06474 h 30.90213 v 30.391353 c -5.90932,4.431959 -11.14013,7.469548 -15.69218,9.062847 -4.55242,1.61002 -9.94934,2.40673 -16.18949,2.40673 -7.68796,0 -13.94346,-1.44404 -18.7822,-4.332244 -4.85395,-2.871481 -8.607275,-7.170404 -11.260591,-12.880296 -2.667903,-5.709766 -4.009587,-12.249692 -4.009587,-19.635746 0,-7.784662 1.462147,-14.556962 4.371729,-20.316271 2.924289,-5.74334 7.190149,-10.108656 12.812519,-13.096324 4.38669,-2.30727 10.29539,-3.452417 17.71187,-3.452417 7.14513,0 12.49678,0.713595 16.05432,2.141037 3.54232,1.427567 6.48183,3.634996 8.83298,6.639389 2.3367,2.987668 4.1,6.788772 5.27633,11.403186 l -19.29511,3.78438 c -0.79885,-2.689028 -2.15574,-4.747074 -4.05485,-6.174641 -1.88414,-1.427567 -4.31112,-2.141162 -7.25063,-2.141162 -4.38644,0 -7.88375,1.676414 -10.49142,5.029367 -2.60779,3.369426 -3.91905,8.664364 -3.91905,15.934232 0,7.718395 1.32622,13.229235 3.96432,16.532017 2.62263,3.303159 6.30076,4.9631 11.01891,4.9631 2.23095,0 4.37173,-0.365034 6.39168,-1.079006 2.03491,-0.713595 4.37135,-1.925512 6.97902,-3.634996 v -6.72238 z"
       style="fill:#ffffff;fill-rule:evenodd;stroke-width:1.25743616"
       id="path4"
       inkscape:connector-curvature="0" />
    <path
       d="m 170.08497,15.1481 h 23.34179 c 5.07891,0 8.88819,1.534072 11.41715,4.616174 2.52883,3.06827 3.79846,7.455716 3.79846,13.121598 0,5.841043 -1.37538,10.403021 -4.13709,13.686942 -2.76171,3.283794 -6.97274,4.925629 -12.63359,4.925629 h -7.68205 v 21.452238 h -14.10467 z m 14.10467,24.641725 h 3.43858 c 2.7089,0 4.60272,-0.592126 5.70335,-1.789708 1.09008,-1.19796 1.63995,-2.732158 1.63995,-4.589517 0,-1.816744 -0.47619,-3.364396 -1.42819,-4.615922 -0.9417,-1.264981 -2.73002,-1.897597 -5.35404,-1.897597 h -3.99965 z m 41.37216,4.845028 -12.0519,-1.615051 c 0.4552,-2.678214 1.11107,-4.790832 1.96789,-6.325407 0.85732,-1.534072 2.08445,-2.866452 3.7034,-3.997013 1.15345,-0.820854 2.7514,-1.453219 4.77235,-1.897345 2.02108,-0.444127 4.21141,-0.67298 6.57099,-0.67298 3.77721,0 6.82473,0.269091 9.11025,0.8074 2.2962,0.538182 4.21128,1.668743 5.73504,3.377976 1.079,1.18438 1.92551,2.853249 2.54995,5.020063 0.6135,2.179891 0.92032,4.239069 0.92032,6.217267 v 18.491731 c 0,1.964745 0.10588,3.512397 0.29663,4.629378 0.20106,1.117106 0.62406,2.543542 1.29063,4.279809 h -11.84014 c -0.4762,-1.076868 -0.78276,-1.897722 -0.93101,-2.46294 -0.14825,-0.564966 -0.28594,-1.453219 -0.43382,-2.664381 -1.65063,2.032016 -3.30127,3.472032 -4.93091,4.333125 -2.23283,1.157344 -4.82516,1.736268 -7.77724,1.736268 -3.92546,0 -6.90948,-1.157345 -8.95156,-3.472033 -2.03164,-2.301611 -3.04752,-5.154483 -3.04752,-8.54604 0,-3.189738 0.72994,-5.800301 2.20101,-7.846276 1.47095,-2.0588 4.16891,-3.579669 8.11575,-4.575559 4.74028,-1.211162 7.8088,-2.059177 9.216,-2.543542 1.39688,-0.48449 2.88858,-1.130686 4.45484,-1.911303 0,-1.978198 -0.31762,-3.350816 -0.95238,-4.145012 -0.64557,-0.780617 -1.76695,-1.184002 -3.3859,-1.184002 -2.06332,0 -3.60821,0.430546 -4.64509,1.264981 -0.80413,0.659399 -1.46026,1.897345 -1.95758,3.700886 z m 10.94095,8.438277 c -1.73551,0.793819 -3.54483,1.493834 -5.41753,2.099415 -2.56065,0.861219 -4.19028,1.722688 -4.86716,2.557123 -0.70894,0.874672 -1.05826,1.857107 -1.05826,2.960633 0,1.264981 0.34932,2.287905 1.03688,3.095305 0.69826,0.794071 1.71414,1.19796 3.05783,1.19796 1.40758,0 2.70903,-0.430546 3.92585,-1.292142 1.20625,-0.874672 2.06307,-1.93796 2.57095,-3.176158 0.508,-1.251526 0.75144,-2.880032 0.75144,-4.871811 z m 20.59077,35.81178 V 31.082331 h 11.80871 v 6.190987 c 1.64008,-2.61094 3.13177,-4.373866 4.49685,-5.289154 1.84139,-1.237945 3.87277,-1.857107 6.10548,-1.857107 4.40165,0 7.8088,2.153234 10.22119,6.433044 2.40208,4.279432 3.60822,9.582166 3.60822,15.893867 0,6.957772 -1.31201,12.273709 -3.93616,15.947812 -2.62401,3.660648 -5.94679,5.490973 -9.94632,5.490973 -1.94689,0 -3.72452,-0.417092 -5.32235,-1.251527 -1.59757,-0.847889 -3.03658,-2.099667 -4.29578,-3.755081 V 88.88491 Z m 12.65534,-36.753851 c 0,3.310578 0.53932,5.773267 1.63995,7.375115 1.08957,1.60147 2.47577,2.408744 4.14791,2.408744 1.47057,0 2.6982,-0.767036 3.69271,-2.314688 0.99438,-1.534072 1.49195,-4.145013 1.49195,-7.819116 0,-3.391557 -0.51857,-5.88128 -1.55545,-7.469171 -1.02657,-1.60147 -2.2962,-2.395667 -3.77746,-2.395667 -1.61895,0 -2.96278,0.807274 -4.03134,2.409122 -1.07939,1.601471 -1.60827,4.212411 -1.60827,7.805661 z m 66.17422,3.862467 h -25.28893 c 0.22206,2.583779 0.77232,4.494957 1.64033,5.759938 1.21644,1.816869 2.81439,2.718577 4.77197,2.718577 1.23794,0 2.4227,-0.390309 3.53415,-1.18438 0.68756,-0.497944 1.4175,-1.372743 2.20064,-2.637723 l 12.4329,1.453596 c -1.90452,4.212411 -4.19028,7.226737 -6.8778,9.057061 -2.68765,1.817121 -6.5393,2.732158 -11.5654,2.732158 -4.35928,0 -7.78743,-0.780617 -10.29501,-2.34185 -2.49726,-1.561107 -4.57103,-4.05083 -6.21135,-7.45559 -1.63995,-3.405012 -2.46546,-7.40215 -2.46546,-12.004869 0,-6.540681 1.65064,-11.843038 4.94135,-15.880414 3.30165,-4.050956 7.85118,-6.082973 13.66053,-6.082973 4.70847,0 8.43287,0.915036 11.15258,2.73178 2.72952,1.803541 4.81397,4.441265 6.23198,7.872934 1.42858,3.445375 2.13752,7.926878 2.13752,13.444885 z m -12.82434,-7.68457 c -0.25413,-3.10876 -0.91001,-5.329392 -1.96827,-6.661772 -1.06857,-1.345959 -2.46507,-2.018939 -4.20059,-2.018939 -2.01026,0 -3.60783,1.02305 -4.81434,3.041487 -0.76176,1.265358 -1.24864,3.136045 -1.4497,5.639224 z M 342.15544,15.1481 h 12.65496 v 57.802581 h -12.65496 z m 32.20885,29.486753 -12.0519,-1.615051 c 0.45519,-2.678214 1.11094,-4.790832 1.96826,-6.325407 0.85682,-1.534072 2.08446,-2.866452 3.70341,-3.997013 1.15344,-0.820854 2.75101,-1.453219 4.77197,-1.897345 2.02095,-0.444127 4.21128,-0.67298 6.57098,-0.67298 3.77746,0 6.82474,0.269091 9.11013,0.8074 2.2962,0.538182 4.2114,1.668743 5.73516,3.377976 1.07926,1.18438 1.92577,2.853249 2.54996,5.020063 0.61337,2.179891 0.92031,4.239069 0.92031,6.217267 v 18.491731 c 0,1.964745 0.10626,3.512397 0.29651,4.629378 0.20106,1.117106 0.62419,2.543542 1.29101,4.279809 h -11.84015 c -0.47619,-1.076868 -0.78313,-1.897722 -0.93138,-2.46294 -0.14825,-0.564966 -0.28544,-1.453219 -0.43369,-2.664381 -1.65076,2.032016 -3.3014,3.472032 -4.93104,4.333125 -2.2327,1.157344 -4.82478,1.736268 -7.77674,1.736268 -3.92584,0 -6.90999,-1.157345 -8.95194,-3.472033 -2.03138,-2.301611 -3.04727,-5.154483 -3.04727,-8.54604 0,-3.189738 0.73007,-5.800301 2.20102,-7.846276 1.4707,-2.0588 4.1689,-3.579669 8.11537,-4.575559 4.74028,-1.211162 7.80893,-2.059177 9.2165,-2.543542 1.39651,-0.48449 2.88821,-1.130686 4.45472,-1.911303 0,-1.978198 -0.3175,-3.350816 -0.95276,-4.145012 -0.64544,-0.780617 -1.76682,-1.184002 -3.38577,-1.184002 -2.06345,0 -3.60821,0.430546 -4.6451,1.264981 -0.80413,0.659399 -1.46038,1.897345 -1.95757,3.700886 z m 10.9412,8.438277 c -1.73589,0.793819 -3.54471,1.493834 -5.41779,2.099415 -2.56077,0.861219 -4.19003,1.722688 -4.86716,2.557123 -0.70907,0.874672 -1.05838,1.857107 -1.05838,2.960633 0,1.264981 0.34931,2.287905 1.03688,3.095305 0.69863,0.794071 1.71451,1.19796 3.05834,1.19796 1.40719,0 2.70851,-0.430546 3.92546,-1.292142 1.20613,-0.874672 2.06308,-1.93796 2.57133,-3.176158 0.5075,-1.251526 0.75132,-2.880032 0.75132,-4.871811 z m 20.0297,-21.990799 h 11.80884 v 6.850387 c 1.14238,-2.960885 2.31682,-5.006482 3.52346,-6.123589 1.20613,-1.116729 2.69821,-1.682072 4.47572,-1.682072 1.86201,0 3.89377,0.740001 6.1051,2.207052 l -3.90409,11.439274 c -1.48138,-0.793819 -2.66652,-1.184127 -3.53402,-1.184127 -1.65076,0 -2.93134,0.874672 -3.84109,2.59736 -1.3017,2.449486 -1.95745,7.025044 -1.95745,13.727179 V 72.950681 H 405.33519 Z M 433.85133,15.1481 h 12.62328 v 10.928001 h -12.62328 z m 0,15.934231 h 12.62328 v 41.86835 h -12.62328 z m 32.17754,13.552522 -12.05227,-1.615051 c 0.45519,-2.678214 1.11107,-4.790832 1.96826,-6.325407 0.85694,-1.534072 2.08445,-2.866452 3.7034,-3.997013 1.15345,-0.820854 2.75102,-1.453219 4.77197,-1.897345 2.02108,-0.444127 4.21141,-0.67298 6.57099,-0.67298 3.77759,0 6.82473,0.269091 9.11063,0.8074 2.29582,0.538182 4.2109,1.668743 5.73466,3.377976 1.07926,1.18438 1.92589,2.853249 2.55033,5.020063 0.61338,2.179891 0.92032,4.239069 0.92032,6.217267 v 18.491731 c 0,1.964745 0.10587,3.512397 0.29625,4.629378 0.20094,1.117106 0.62407,2.543542 1.29101,4.279809 h -11.84014 c -0.47632,-1.076868 -0.78314,-1.897722 -0.93139,-2.46294 -0.14838,-0.564966 -0.28556,-1.453219 -0.43381,-2.664381 -1.65064,2.032016 -3.3014,3.472032 -4.93104,4.333125 -2.2327,1.157344 -4.82466,1.736268 -7.77674,1.736268 -3.92584,0 -6.90986,-1.157345 -8.95194,-3.472033 -2.03139,-2.301611 -3.04714,-5.154483 -3.04714,-8.54604 0,-3.189738 0.72994,-5.800301 2.20089,-7.846276 1.47069,-2.0588 4.1689,-3.579669 8.11549,-4.575559 4.74028,-1.211162 7.8088,-2.059177 9.21638,-2.543542 1.39651,-0.48449 2.8882,-1.130686 4.45484,-1.911303 0,-1.978198 -0.31763,-3.350816 -0.95276,-4.145012 -0.64519,-0.780617 -1.76695,-1.184002 -3.38589,-1.184002 -2.06346,0 -3.60822,0.430546 -4.6451,1.264981 -0.80413,0.659399 -1.46026,1.897345 -1.9572,3.700886 z m 10.94095,8.438277 c -1.73551,0.793819 -3.54484,1.493834 -5.41791,2.099415 -2.56027,0.861219 -4.18991,1.722688 -4.86716,2.557123 -0.70894,0.874672 -1.05826,1.857107 -1.05826,2.960633 0,1.264981 0.34932,2.287905 1.03688,3.095305 0.69863,0.794071 1.71439,1.19796 3.05821,1.19796 1.4072,0 2.70852,-0.430546 3.92547,-1.292142 1.20613,-0.874672 2.06307,-1.93796 2.57133,-3.176158 0.50763,-1.251526 0.75144,-2.880032 0.75144,-4.871811 z"
       style="fill:#ffffff;fill-rule:evenodd;stroke-width:1.25743616"
       id="path6"
       inkscape:connector-curvature="0" />
    <path
       inkscape:connector-curvature="0"
       id="path9"
       style="fill:#ffffff;fill-rule:evenodd;stroke-width:1.25743616"
       d="m 485.93107,5.562035 c 1.16564,0 2.30262,0.298264 3.41507,0.895169 1.10893,0.600425 1.97631,1.454979 2.59522,2.570074 0.61891,1.112453 0.92988,2.274576 0.92988,3.48423 0,1.197205 -0.30481,2.34713 -0.91756,3.449776 -0.60922,1.105915 -1.46705,1.963612 -2.56667,2.573217 -1.10278,0.612749 -2.25258,0.917551 -3.45594,0.917551 -1.20349,0 -2.35644,-0.304802 -3.45607,-0.917551 -1.10277,-0.609605 -1.96046,-1.467302 -2.57321,-2.573217 -0.61577,-1.102646 -0.9207,-2.252571 -0.9207,-3.449776 0,-1.209654 0.31109,-2.371777 0.9334,-3.48423 0.62205,-1.115095 1.48905,-1.969649 2.60138,-2.570074 1.10893,-0.596905 2.24955,-0.895169 3.4152,-0.895169 z m 0,1.149799 c -0.97741,0 -1.92627,0.25111 -2.84998,0.750816 -0.92321,0.499705 -1.64599,1.215815 -2.16757,2.142671 -0.52171,0.930251 -0.78263,1.897974 -0.78263,2.906187 0,0.999284 0.25778,1.957325 0.7698,2.874876 0.51241,0.917551 1.22852,1.633661 2.14921,2.145689 0.92057,0.512405 1.87861,0.769802 2.88117,0.769802 0.99891,0 1.96047,-0.257397 2.88104,-0.769802 0.92019,-0.512028 1.63366,-1.228138 2.14254,-2.145689 0.50901,-0.917551 0.76364,-1.875592 0.76364,-2.874876 0,-1.008213 -0.25777,-1.975936 -0.77634,-2.906187 -0.51819,-0.926856 -1.24084,-1.642966 -2.16769,-2.142671 -0.92673,-0.499706 -1.87559,-0.750815 -2.84319,-0.750816 z m -3.0479,9.636111 v -7.47156 h 2.56705 c 0.87971,0 1.51446,0.06602 1.90728,0.204585 0.39232,0.138067 0.70379,0.379997 0.93906,0.722271 0.23275,0.34567 0.34881,0.710326 0.34881,1.096611 0,0.546733 -0.19478,1.021289 -0.58408,1.426435 -0.38968,0.405146 -0.90837,0.63161 -1.5523,0.681782 0.26393,0.110026 0.4777,0.241931 0.63475,0.395841 0.30178,0.295246 0.66896,0.788664 1.10579,1.482769 l 0.91139,1.461266 h -1.47347 l -0.66292,-1.178343 c -0.52171,-0.923713 -0.93955,-1.504774 -1.2602,-1.737525 -0.21992,-0.172898 -0.54321,-0.257272 -0.96772,-0.257272 h -0.70693 v 3.17314 z m 1.20651,-4.203735 h 1.46441 c 0.69712,0 1.17482,-0.106882 1.42958,-0.314484 0.25413,-0.207226 0.38301,-0.483862 0.38301,-0.829154 0,-0.219925 -0.0629,-0.417972 -0.18509,-0.593887 -0.12273,-0.172897 -0.29261,-0.304802 -0.50901,-0.389679 -0.21993,-0.08802 -0.62231,-0.128888 -1.21305,-0.128888 h -1.36985 z" />
  </g>
</svg>
