<?xml version="1.0" encoding="UTF-8" standalone="no"?>
<!-- Created with Inkscape (http://www.inkscape.org/) -->

<svg
   version="1.1"
   id="svg2"
   width="800"
   height="800"
   viewBox="0 0 800 800"
   sodipodi:docname="SIMBOLO_CMYK.ai"
   xmlns:inkscape="http://www.inkscape.org/namespaces/inkscape"
   xmlns:sodipodi="http://sodipodi.sourceforge.net/DTD/sodipodi-0.dtd"
   xmlns="http://www.w3.org/2000/svg"
   xmlns:svg="http://www.w3.org/2000/svg">
  <defs
     id="defs6">
    <clipPath
       clipPathUnits="userSpaceOnUse"
       id="clipPath18">
      <path
         d="M 0,708.661 H 708.661 V 0 H 0 Z"
         id="path16" />
    </clipPath>
  </defs>
  <sodipodi:namedview
     id="namedview4"
     pagecolor="#ffffff"
     bordercolor="#000000"
     borderopacity="0.25"
     inkscape:showpageshadow="2"
     inkscape:pageopacity="0.0"
     inkscape:pagecheckerboard="0"
     inkscape:deskcolor="#d1d1d1"
     showgrid="false" />
  <g
     id="g10"
     inkscape:groupmode="layer"
     inkscape:label="Page 1"
     transform="matrix(1.3333333,0,0,-1.3333333,0,944.88133)">
    <g
       id="g12"
       transform="matrix(1.1418538,0,0,1.1418538,-99.32509,3.7356716)">
      <g
         id="g14"
         clip-path="url(#clipPath18)">
        <g
           id="g20"
           transform="translate(463.8651,377.8202)">
          <path
             d="m 0,0 c -12.561,-10.984 -22.234,-12.842 -26.468,-8.377 -2.778,2.925 -3.333,8.574 -1.232,15.883 6.667,23.186 11.846,46.596 16.149,70.384 0.032,0.012 0.072,0.029 0.107,0.046 25.316,11.849 50.742,22.724 78.85,25.666 C 54.125,65.659 30.056,26.291 0,0 m -12.995,-77.841 c -15.86,3.507 -23.45,10.623 -22.961,17.09 0.318,4.242 4.011,8.328 10.498,11.204 19.951,8.843 39.642,18.583 58.187,30.244 0.029,-0.02 0.067,-0.041 0.096,-0.058 C 57.397,-31.902 81,-47.817 99.985,-67.973 65.465,-81.426 22.732,-85.746 -12.995,-77.841 m -65.607,-41.265 c -7.656,16.745 -7.083,28.105 -1.895,32.032 3.406,2.572 8.826,2.086 15.145,-1.641 19.286,-11.383 39.162,-22.017 59.993,-30.464 0.009,-0.037 0.017,-0.084 0.023,-0.124 7.495,-31.306 11.855,-64.163 9.931,-96.386 -34.68,22.715 -66.153,59.287 -83.197,96.583 m -74.498,30.038 c 8.6,18.311 17.784,25.189 24.109,23.27 4.15,-1.252 7.197,-6.276 8.313,-14.34 3.539,-25.47 8.664,-50.473 14.902,-75.474 -0.023,-0.035 -0.057,-0.078 -0.081,-0.113 -21.574,-30.62 -44.723,-60.103 -73.763,-84.085 -3.432,49.481 5.547,106.106 26.52,150.742 m -22.475,84.172 c 19.677,4.147 30.423,0.732 32.837,-5.764 1.585,-4.265 -0.379,-9.966 -5.953,-16.045 -18.414,-20.087 -35.293,-41.214 -51.506,-63.19 h -0.147 c -39.654,-2.935 -80.908,-1.303 -119.604,8.356 39.425,34.926 92.876,65.783 144.373,76.643 m 50.265,68.243 c 14.722,-13.189 18.753,-23.719 15.463,-29.463 -2.153,-3.762 -7.526,-5.541 -15.402,-4.612 -26.39,3.11 -52.713,4.32 -79.346,4.517 -0.026,0.034 -0.058,0.081 -0.09,0.115 -25.148,29.923 -47.892,63.636 -62.513,100.038 49.837,-11.809 103.768,-36.457 141.888,-70.595 m 78.176,-1.094 c -0.101,-18.681 -4.945,-28.085 -10.952,-28.789 -3.938,-0.463 -8.47,2.796 -12.587,9.558 -13.481,22.145 -28.248,43.256 -43.916,63.978 0.008,0.043 0.026,0.089 0.037,0.133 6.083,32.7 15.817,66.042 32.463,95.036 20.837,-41.975 35.21,-93.219 34.955,-139.916"
             style="fill:#006a27;fill-opacity:1;fill-rule:nonzero;stroke:none"
             id="path22" />
        </g>
        <g
           id="g24"
           transform="translate(461.9728,550.5029)">
          <path
             d="m 0,0 c -1.484,-24.95 -3.281,-49.957 -6.661,-74.37 -0.915,-6.62 -1.953,-14.338 -2.998,-20.423 0.032,0.012 0.072,0.032 0.107,0.044 25.313,11.852 50.737,22.723 78.842,25.663 C 51.636,-41.29 27.964,-17.428 0,0 m 100.388,-144.592 c -16.234,-13.348 -32.93,-26.285 -50.569,-37.59 -4.934,-3.163 -10.533,-6.98 -15.197,-9.81 0.029,-0.014 0.066,-0.034 0.095,-0.052 24.57,-12.538 48.167,-28.453 67.152,-48.604 4.5,33.309 4.144,62.919 -1.481,96.056 M 73.263,-317.079 c -20.223,5.122 -40.369,10.941 -59.712,18.571 -5.51,2.176 -11.922,4.479 -17.018,6.647 0.009,-0.038 0.018,-0.084 0.024,-0.125 7.494,-31.3 11.855,-64.154 9.93,-96.374 27.252,18.406 50.091,42.967 66.776,71.281 M -72.262,-420.783 c -9.41,23.728 -18.452,47.626 -25.631,71.718 -1.997,6.69 -4.352,14.468 -5.99,20.77 -0.023,-0.034 -0.058,-0.078 -0.081,-0.113 -21.572,-30.614 -44.718,-60.088 -73.749,-84.073 35.056,-10.266 69.107,-15.087 105.451,-8.302 m -186.701,60.181 c 14.633,26.665 30.044,53.078 46.914,77.971 4.477,6.606 9.511,14.205 13.745,20.056 -0.049,-0.003 -0.101,-0.003 -0.148,-0.003 -39.645,-2.934 -80.893,-1.302 -119.586,8.351 9.899,-39.903 30.188,-77.054 59.075,-106.375 m -61.277,212.686 c 31.097,3.805 62.354,7.28 93.309,8.33 7.998,0.272 17.073,0.674 24.229,0.692 -0.026,0.035 -0.058,0.081 -0.09,0.116 -25.145,29.919 -47.883,63.627 -62.505,100.023 -27.735,-30.649 -46.676,-68.694 -54.943,-109.161 M -80.202,29.471 c -16.647,-28.988 -26.375,-62.323 -32.457,-95.021 -0.012,-0.044 -0.027,-0.09 -0.038,-0.133 -4.175,5.431 -9.723,11.976 -14.514,17.94 -18.184,22.637 -38.271,43.819 -58.604,64.613 33.371,13.397 70.022,17.787 105.613,12.601"
             style="fill:#3baa35;fill-opacity:1;fill-rule:nonzero;stroke:none"
             id="path26" />
        </g>
      </g>
    </g>
  </g>
</svg>
