<?xml version="1.0" encoding="UTF-8" standalone="no"?>
<svg
   viewBox="0 0 160 160"
   width="800"
   height="800"
   version="1.1"
   id="svg8"
   sodipodi:docname="pix.svg"
   inkscape:version="1.2.2 (b0a8486541, 2022-12-01)"
   xmlns:inkscape="http://www.inkscape.org/namespaces/inkscape"
   xmlns:sodipodi="http://sodipodi.sourceforge.net/DTD/sodipodi-0.dtd"
   xmlns="http://www.w3.org/2000/svg"
   xmlns:svg="http://www.w3.org/2000/svg">
  <defs
     id="defs12" />
  <sodipodi:namedview
     id="namedview10"
     pagecolor="#ffffff"
     bordercolor="#000000"
     borderopacity="0.25"
     inkscape:showpageshadow="2"
     inkscape:pageopacity="0.0"
     inkscape:pagecheckerboard="0"
     inkscape:deskcolor="#d1d1d1"
     showgrid="false"
     inkscape:zoom="0.31009579"
     inkscape:cx="-324.09341"
     inkscape:cy="153.17848"
     inkscape:window-width="1920"
     inkscape:window-height="1043"
     inkscape:window-x="1920"
     inkscape:window-y="0"
     inkscape:window-maximized="1"
     inkscape:current-layer="svg8" />
  <g
     id="g175"
     transform="matrix(3.1367403,0,0,3.1367403,5.0479328,5.7817326)">
    <path
       fill="#4db6ac"
       d="m 11.9,12 h -0.68 l 8.04,-8.04 c 2.62,-2.61 6.86,-2.61 9.48,0 L 36.78,12 H 36.1 c -1.6,0 -3.11,0.62 -4.24,1.76 l -6.8,6.77 c -0.59,0.59 -1.53,0.59 -2.12,0 l -6.8,-6.77 C 15.01,12.62 13.5,12 11.9,12 Z"
       id="path2" />
    <path
       fill="#4db6ac"
       d="m 36.1,36 h 0.68 l -8.04,8.04 c -2.62,2.61 -6.86,2.61 -9.48,0 L 11.22,36 h 0.68 c 1.6,0 3.11,-0.62 4.24,-1.76 l 6.8,-6.77 c 0.59,-0.59 1.53,-0.59 2.12,0 l 6.8,6.77 C 32.99,35.38 34.5,36 36.1,36 Z"
       id="path4" />
    <path
       fill="#4db6ac"
       d="M 44.04,28.74 38.78,34 H 36.1 c -1.07,0 -2.07,-0.42 -2.83,-1.17 l -6.8,-6.78 c -1.36,-1.36 -3.58,-1.36 -4.94,0 l -6.8,6.78 C 13.97,33.58 12.97,34 11.9,34 H 9.22 L 3.96,28.74 c -2.61,-2.62 -2.61,-6.86 0,-9.48 L 9.22,14 h 2.68 c 1.07,0 2.07,0.42 2.83,1.17 l 6.8,6.78 c 0.68,0.68 1.58,1.02 2.47,1.02 0.89,0 1.79,-0.34 2.47,-1.02 l 6.8,-6.78 C 34.03,14.42 35.03,14 36.1,14 h 2.68 l 5.26,5.26 c 2.61,2.62 2.61,6.86 0,9.48 z"
       id="path6" />
  </g>
</svg>
